<svg width="36" height="87" viewBox="0 0 36 87" fill="none" xmlns="http://www.w3.org/2000/svg">
<mask id="mask0_470_132" style="mask-type:luminance" maskUnits="userSpaceOnUse" x="0" y="54" width="36" height="33">
<path d="M36 54.7024L36 86.1563L-9.42295e-07 86.1563L4.32599e-07 54.7024L36 54.7024Z" fill="white"/>
</mask>
<g mask="url(#mask0_470_132)">
<mask id="mask1_470_132" style="mask-type:luminance" maskUnits="userSpaceOnUse" x="0" y="54" width="36" height="33">
<path d="M18.0294 86.1563L0.053424 54.7024L36 54.7024L18.0294 86.1563Z" fill="white"/>
</mask>
<g mask="url(#mask1_470_132)">
<mask id="mask2_470_132" style="mask-type:luminance" maskUnits="userSpaceOnUse" x="-1" y="53" width="38" height="34">
<path d="M36.4274 86.8027L36.4274 53.9812L-0.496803 53.9812L-0.496805 86.8027L36.4274 86.8027Z" fill="white"/>
</mask>
<g mask="url(#mask2_470_132)">
<mask id="mask3_470_132" style="mask-type:luminance" maskUnits="userSpaceOnUse" x="0" y="54" width="36" height="33">
<path d="M36 54.7024L36 86.1563L0.0480743 86.1563L0.0480756 54.7024L36 54.7024Z" fill="white"/>
</mask>
<g mask="url(#mask3_470_132)">
<mask id="mask4_470_132" style="mask-type:luminance" maskUnits="userSpaceOnUse" x="0" y="54" width="36" height="33">
<path d="M18.0294 86.1563L0.053424 54.7024L36 54.7024L18.0294 86.1563Z" fill="white"/>
</mask>
<g mask="url(#mask4_470_132)">
<path d="M36 86.1563L-9.42295e-07 86.1563L4.32599e-07 54.7024L36 54.7024L36 86.1563Z" fill="#DD481C"/>
</g>
</g>
</g>
</g>
</g>
<mask id="mask5_470_132" style="mask-type:luminance" maskUnits="userSpaceOnUse" x="0" y="27" width="36" height="32">
<path d="M36 27.3513L36 58.8052L-9.42295e-07 58.8052L4.32599e-07 27.3513L36 27.3513Z" fill="white"/>
</mask>
<g mask="url(#mask5_470_132)">
<mask id="mask6_470_132" style="mask-type:luminance" maskUnits="userSpaceOnUse" x="0" y="27" width="36" height="32">
<path d="M18.0294 58.8052L0.053424 27.3513L36 27.3513L18.0294 58.8052Z" fill="white"/>
</mask>
<g mask="url(#mask6_470_132)">
<mask id="mask7_470_132" style="mask-type:luminance" maskUnits="userSpaceOnUse" x="-1" y="26" width="38" height="34">
<path d="M36.4274 59.4516L36.4274 26.6301L-0.496803 26.6301L-0.496805 59.4516L36.4274 59.4516Z" fill="white"/>
</mask>
<g mask="url(#mask7_470_132)">
<mask id="mask8_470_132" style="mask-type:luminance" maskUnits="userSpaceOnUse" x="0" y="27" width="36" height="32">
<path d="M36 27.3513L36 58.8052L0.0480743 58.8052L0.0480756 27.3513L36 27.3513Z" fill="white"/>
</mask>
<g mask="url(#mask8_470_132)">
<mask id="mask9_470_132" style="mask-type:luminance" maskUnits="userSpaceOnUse" x="0" y="27" width="36" height="32">
<path d="M18.0294 58.8052L0.053424 27.3513L36 27.3513L18.0294 58.8052Z" fill="white"/>
</mask>
<g mask="url(#mask9_470_132)">
<path d="M36 58.8052L-9.42295e-07 58.8052L4.32599e-07 27.3513L36 27.3513L36 58.8052Z" fill="#DD481C"/>
</g>
</g>
</g>
</g>
</g>
<mask id="mask10_470_132" style="mask-type:luminance" maskUnits="userSpaceOnUse" x="0" y="0" width="36" height="32">
<path d="M36 0L36 31.4539L-9.42295e-07 31.4539L4.32599e-07 -1.57361e-06L36 0Z" fill="white"/>
</mask>
<g mask="url(#mask10_470_132)">
<mask id="mask11_470_132" style="mask-type:luminance" maskUnits="userSpaceOnUse" x="0" y="0" width="36" height="32">
<path d="M18.0294 31.4539L0.053424 -1.57127e-06L36 0L18.0294 31.4539Z" fill="white"/>
</mask>
<g mask="url(#mask11_470_132)">
<mask id="mask12_470_132" style="mask-type:luminance" maskUnits="userSpaceOnUse" x="-1" y="-1" width="38" height="34">
<path d="M36.4274 32.1003L36.4274 -0.721191L-0.496803 -0.721193L-0.496805 32.1003L36.4274 32.1003Z" fill="white"/>
</mask>
<g mask="url(#mask12_470_132)">
<mask id="mask13_470_132" style="mask-type:luminance" maskUnits="userSpaceOnUse" x="0" y="0" width="36" height="32">
<path d="M36 0L36 31.4539L0.0480743 31.4539L0.0480756 -1.57151e-06L36 0Z" fill="white"/>
</mask>
<g mask="url(#mask13_470_132)">
<mask id="mask14_470_132" style="mask-type:luminance" maskUnits="userSpaceOnUse" x="0" y="0" width="36" height="32">
<path d="M18.0294 31.4539L0.053424 -1.57127e-06L36 0L18.0294 31.4539Z" fill="white"/>
</mask>
<g mask="url(#mask14_470_132)">
<path d="M36 31.4539L-9.42295e-07 31.4539L4.32599e-07 -1.57361e-06L36 0L36 31.4539Z" fill="#DD481C"/>
</g>
</g>
</g>
</g>
</g>
</svg>
