<svg width="143" height="146" viewBox="0 0 143 146" fill="none" xmlns="http://www.w3.org/2000/svg">
<mask id="mask0_412_2935" style="mask-type:luminance" maskUnits="userSpaceOnUse" x="0" y="0" width="143" height="146">
<path d="M142.895 56.541L62.1219 145.287L8.58307e-06 88.7456L80.7727 0.000115395L142.895 56.541Z" fill="white"/>
</mask>
<g mask="url(#mask0_412_2935)">
<mask id="mask1_412_2935" style="mask-type:luminance" maskUnits="userSpaceOnUse" x="4" y="23" width="141" height="119">
<path d="M144.824 81.6431L36.1188 141.304L4.36678 83.445L113.072 23.7844L144.824 81.6431Z" fill="white"/>
</mask>
<g mask="url(#mask1_412_2935)">
<mask id="mask2_412_2935" style="mask-type:luminance" maskUnits="userSpaceOnUse" x="4" y="23" width="141" height="119">
<path d="M144.824 81.6431L36.1188 141.304L4.36678 83.445L113.072 23.7844L144.824 81.6431Z" fill="white"/>
</mask>
<g mask="url(#mask2_412_2935)">
<path d="M22.6836 107.201C25.8131 109.303 29.4271 110.888 33.1397 111.591C36.9826 112.321 41.0722 112.339 44.8011 111.035C45.8712 110.664 46.9075 110.199 47.8997 109.658C52.8886 113.903 59.217 116.367 65.6916 117.238C73.4352 118.279 81.2686 116.528 88.0459 112.703C95.3728 108.568 101.334 102.282 105.775 95.1893C110.274 88.0094 113.157 79.9212 114.936 71.6599C116.686 63.5548 117.477 55.2811 118.017 47.0191C119.732 49.6151 121.383 52.2511 122.968 54.9269C123.801 56.333 124.613 57.7475 125.413 59.1736C125.8 59.8706 126.49 60.4355 127.26 60.6573C127.993 60.8736 128.959 60.8023 129.623 60.3988C130.311 59.9829 130.908 59.3502 131.11 58.548C131.305 57.7535 131.258 56.9225 130.848 56.1897C128.042 51.1636 125.009 46.2626 121.766 41.5078C120.926 40.279 120.073 39.0656 119.209 37.8564C119.198 37.7131 119.18 37.5628 119.144 37.417C118.965 36.6696 118.41 35.8477 117.721 35.4745C117.029 35.0978 116.19 34.8903 115.408 35.1151C114.625 35.3399 113.873 35.803 113.465 36.5374C111.58 39.9701 109.476 43.2804 107.165 46.4382C106.576 47.2401 105.972 48.028 105.359 48.809C102.866 51.9274 100.17 54.8894 97.2882 57.6537C96.7273 58.1926 96.3681 59.0206 96.3455 59.7959C96.3265 60.5674 96.6546 61.5069 97.2254 62.0404C97.7965 62.5814 98.5533 62.9956 99.3637 62.9796C100.204 62.9696 100.995 62.6964 101.612 62.1033C105.203 58.6604 108.522 54.9132 111.524 50.934C111.196 55.1562 110.775 59.3791 110.15 63.571C110.113 63.7976 110.076 64.0317 110.042 64.2618C110.162 63.3639 110.039 64.273 110.011 64.4587C109.925 64.9789 109.835 65.503 109.746 66.0271C109.571 67.0086 109.384 67.9797 109.186 68.955C108.784 70.8985 108.329 72.8297 107.811 74.7455C107.289 76.6651 106.7 78.5584 106.036 80.4331C105.714 81.3441 105.376 82.2485 105.013 83.1431C104.841 83.5641 104.665 83.9817 104.489 84.3992C104.473 84.4405 104.456 84.4745 104.44 84.5158C104.336 84.7456 104.233 84.9753 104.122 85.2055C102.513 88.6989 100.58 92.0454 98.3222 95.1601C98.0455 95.5492 97.7647 95.9274 97.4726 96.3024C97.3825 96.4246 97.2885 96.5434 97.1981 96.6582C97.1213 96.7503 97.0484 96.8459 96.9716 96.938C96.3721 97.6741 95.7568 98.3888 95.1187 99.0898C93.8321 100.503 92.4608 101.84 91.0152 103.088C90.3064 103.696 89.5742 104.276 88.8304 104.846C88.8269 104.85 88.8269 104.85 88.8196 104.85C88.645 104.98 88.4701 105.103 88.2917 105.229C87.8848 105.513 87.4702 105.791 87.0513 106.058C85.4878 107.071 83.8491 107.974 82.1526 108.747C81.7555 108.928 81.3543 109.098 80.9492 109.265C80.8009 109.327 80.6562 109.386 80.5041 109.444C80.3881 109.487 80.2686 109.533 80.1526 109.575C79.3333 109.872 78.505 110.132 77.664 110.359C76.8703 110.574 76.0675 110.752 75.2599 110.904C74.8577 110.974 74.4516 111.041 74.0413 111.098C73.851 111.129 73.6604 111.152 73.4698 111.176C73.3598 111.189 73.2498 111.201 73.1398 111.214C72.7144 111.263 73.3829 111.21 73.4481 111.185C73.1225 111.318 72.563 111.259 72.2137 111.279C71.7726 111.308 71.3308 111.321 70.8925 111.331C70.0636 111.344 69.2371 111.331 68.4089 111.281C67.5846 111.235 66.7624 111.156 65.9387 111.047C65.7716 111.022 65.601 111.001 65.4339 110.975C65.3968 110.97 65.367 110.964 65.3372 110.958C64.9284 110.888 64.5228 110.808 64.1206 110.724C62.4892 110.373 60.8779 109.899 59.3164 109.309C58.971 109.178 58.6288 109.035 58.2866 108.893C58.0719 108.796 57.8572 108.699 57.6421 108.595C56.9105 108.246 56.1995 107.866 55.4944 107.457C54.8006 107.051 54.124 106.618 53.4642 106.152C53.3003 106.038 53.1434 105.916 52.9792 105.795C55.9604 102.705 57.9513 98.7069 58.2272 94.3028C58.467 90.4645 57.1669 86.105 54.093 83.6171C52.05 81.9619 49.6891 81.2286 47.0682 81.6321C44.9705 81.9483 42.9048 83.2584 41.5728 84.8843C36.6627 90.8595 39.2287 99.0897 43.4961 104.924C43.4347 104.953 43.3773 104.985 43.3198 105.018C43.1456 105.077 42.9676 105.134 42.7896 105.19C41.9973 105.434 41.1872 105.612 40.3673 105.739C40.2394 105.763 40.1038 105.781 39.9756 105.798C39.9283 105.811 39.833 105.823 39.7559 105.83C39.7485 105.831 39.7373 105.828 39.7265 105.832C39.6385 105.843 39.5429 105.848 39.4553 105.867C39.5173 105.853 39.5685 105.843 39.6161 105.837C39.2191 105.863 38.8222 105.889 38.4242 105.893C37.5879 105.907 36.7492 105.869 35.9192 105.782C35.7266 105.762 35.53 105.738 35.337 105.71C35.3223 105.711 35.3111 105.708 35.2925 105.705C34.8862 105.61 34.4633 105.556 34.0535 105.464C33.2299 105.278 32.4116 105.048 31.6098 104.776C31.2389 104.649 30.8637 104.512 30.4921 104.371C30.2966 104.292 30.0973 104.209 29.898 104.126C29.8606 104.113 29.8304 104.1 29.8115 104.09C28.2592 103.381 26.7735 102.522 25.3818 101.544C25.0424 101.305 24.721 101.055 24.3886 100.809C24.1855 100.645 23.9821 100.474 23.7821 100.299C22.9946 99.6246 22.2421 98.9116 21.5215 98.1712C20.7774 97.4025 20.0688 96.6025 19.3921 95.7753C19.0906 95.4024 18.7888 95.0221 18.4979 94.6376C18.451 94.5808 18.4115 94.5236 18.3684 94.4704C18.2175 94.2415 18.0449 94.021 17.8906 93.796C16.6969 92.0898 15.6101 90.3048 14.6134 88.4751C13.6362 86.6702 12.7383 84.8247 11.8909 82.9548C11.2201 81.471 9.03285 80.9028 7.67792 81.7261C6.14739 82.6571 5.73299 84.3504 6.44922 85.939C10.148 94.1085 15.1032 102.105 22.6836 107.201ZM46.5979 98.1274C46.4183 97.7598 46.2535 97.3914 46.0958 97.0154C46.059 96.9397 46.0258 96.8602 45.9929 96.788C45.9883 96.7698 45.9841 96.7589 45.9796 96.7407C45.9324 96.5991 45.8778 96.4579 45.8306 96.3163C45.5396 95.4599 45.3141 94.5856 45.1724 93.689C45.1427 93.5282 45.1383 93.3551 45.1086 93.1943C45.1065 93.1501 45.1083 93.1095 45.1027 93.0692C45.0802 92.591 45.0875 92.1187 45.1281 91.6485C45.1394 91.4968 45.1727 91.3441 45.1879 91.1959C45.2002 91.1437 45.2121 91.0842 45.2244 91.032C45.2739 90.8306 45.3235 90.6291 45.3916 90.4305C45.4235 90.3258 45.4554 90.2211 45.4912 90.1198C45.5452 90.0141 45.6294 89.8442 45.6564 89.7913C45.7617 89.5983 45.8819 89.412 46.0026 89.233C46.0162 89.2103 46.0404 89.176 46.0716 89.1339C46.1558 89.0415 46.3234 88.8419 46.3868 88.7799C46.5242 88.6444 46.6616 88.5089 46.8071 88.3878C46.8317 88.3608 46.8639 88.3408 46.8923 88.3174C46.86 88.3373 46.8204 88.3576 46.7773 88.3818C46.8204 88.3576 46.86 88.3373 46.8958 88.3135C47.0991 88.1676 47.3553 88.0486 47.1222 88.1886C47.3265 88.0647 47.5347 87.9443 47.7509 87.8383C47.9398 87.7778 48.1294 87.732 48.3231 87.6971C48.5113 87.6993 48.692 87.7018 48.8805 87.7114C48.8844 87.7149 48.8844 87.7149 48.8879 87.7111C49.0522 87.7549 49.2059 87.8104 49.3667 87.8581C49.5482 87.9528 49.7299 88.0549 49.9012 88.1685C49.9278 88.1857 49.9509 88.2067 49.9775 88.2239C50.0584 88.2975 50.1428 88.3673 50.224 88.4483C50.3518 88.5787 50.4758 88.7056 50.5966 88.8437C50.6705 88.925 50.7618 89.0645 50.8294 89.1682C50.7891 89.0964 50.7293 88.9997 50.6379 88.8602C50.8374 89.1826 51.0506 89.4823 51.2249 89.817C51.326 90.0076 51.4237 90.2021 51.5139 90.397C51.5227 90.4261 51.5388 90.4548 51.5514 90.4874C51.6549 90.807 51.7546 91.123 51.8328 91.4549C51.9195 91.8084 52.087 92.313 52.049 92.6798C52.0451 92.6763 51.984 91.846 52.0068 92.3316C52.0141 92.4086 52.0214 92.4857 52.0249 92.5593C52.0367 92.732 52.045 92.9086 52.046 93.0855C52.0573 93.4832 52.043 93.8857 52.0137 94.2816C52.0035 94.4554 51.9858 94.6295 51.9682 94.8036C51.9545 94.9038 51.9369 95.0005 51.9306 95.1003C51.8981 95.43 51.9929 94.6218 51.996 94.688C51.9951 95.0604 51.8385 95.4955 51.7448 95.8538C51.6514 96.2195 51.5391 96.5751 51.4194 96.931C51.3608 97.0959 51.3022 97.2609 51.2397 97.4224C51.2036 97.5163 51.1636 97.6066 51.1274 97.7005C50.9797 98.0872 51.2481 97.4441 51.2678 97.3916C51.0533 98.0837 50.581 98.7807 50.2005 99.3922C49.9908 99.7154 49.7807 100.031 49.5556 100.341C49.448 100.482 49.3403 100.623 49.2327 100.765C49.8638 99.9168 49.354 100.601 49.1969 100.789C49.0045 101.008 48.8082 101.224 48.608 101.436C48.5408 101.339 48.4739 101.25 48.4042 101.18C48.1868 100.869 47.9768 100.559 47.7734 100.233C47.3471 99.5558 46.9562 98.8479 46.5979 98.1274ZM24.653 101.021C24.5921 100.98 24.5346 100.935 24.4807 100.886C24.5728 100.962 24.6646 101.032 24.653 101.021Z" fill="#E8DCDC"/>
</g>
</g>
</g>
</svg>
