<svg width="36" height="138" viewBox="0 0 36 138" fill="none" xmlns="http://www.w3.org/2000/svg">
<mask id="mask0_467_131" style="mask-type:luminance" maskUnits="userSpaceOnUse" x="0" y="106" width="36" height="32">
<path d="M35.0989 106.667L35.0989 137.333L-2.27316e-05 137.333L-2.13911e-05 106.667L35.0989 106.667Z" fill="white"/>
</mask>
<g mask="url(#mask0_467_131)">
<mask id="mask1_467_131" style="mask-type:luminance" maskUnits="userSpaceOnUse" x="0" y="106" width="36" height="32">
<path d="M17.5781 137.333L0.0520619 106.667L35.0989 106.667L17.5781 137.333Z" fill="white"/>
</mask>
<g mask="url(#mask1_467_131)">
<mask id="mask2_467_131" style="mask-type:luminance" maskUnits="userSpaceOnUse" x="-1" y="105" width="37" height="33">
<path d="M35.5156 137.963L35.5156 105.963L-0.484375 105.963L-0.484376 137.963L35.5156 137.963Z" fill="white"/>
</mask>
<g mask="url(#mask2_467_131)">
<mask id="mask3_467_131" style="mask-type:luminance" maskUnits="userSpaceOnUse" x="0" y="106" width="36" height="32">
<path d="M35.0989 106.667L35.0989 137.333L0.0468523 137.333L0.0468536 106.667L35.0989 106.667Z" fill="white"/>
</mask>
<g mask="url(#mask3_467_131)">
<mask id="mask4_467_131" style="mask-type:luminance" maskUnits="userSpaceOnUse" x="0" y="106" width="36" height="32">
<path d="M17.5781 137.333L0.0520619 106.667L35.0989 106.667L17.5781 137.333Z" fill="white"/>
</mask>
<g mask="url(#mask4_467_131)">
<path d="M35.0989 137.333L-2.27316e-05 137.333L-2.13911e-05 106.667L35.0989 106.667L35.0989 137.333Z" fill="#DD481C"/>
</g>
</g>
</g>
</g>
</g>
<mask id="mask5_467_131" style="mask-type:luminance" maskUnits="userSpaceOnUse" x="0" y="80" width="36" height="31">
<path d="M35.0989 80L35.0989 110.667L-2.27316e-05 110.667L-2.13911e-05 80L35.0989 80Z" fill="white"/>
</mask>
<g mask="url(#mask5_467_131)">
<mask id="mask6_467_131" style="mask-type:luminance" maskUnits="userSpaceOnUse" x="0" y="80" width="36" height="31">
<path d="M17.5781 110.667L0.0520619 80L35.0989 80L17.5781 110.667Z" fill="white"/>
</mask>
<g mask="url(#mask6_467_131)">
<mask id="mask7_467_131" style="mask-type:luminance" maskUnits="userSpaceOnUse" x="-1" y="79" width="37" height="33">
<path d="M35.5156 111.297L35.5156 79.2969L-0.484375 79.2969L-0.484376 111.297L35.5156 111.297Z" fill="white"/>
</mask>
<g mask="url(#mask7_467_131)">
<mask id="mask8_467_131" style="mask-type:luminance" maskUnits="userSpaceOnUse" x="0" y="80" width="36" height="31">
<path d="M35.0989 80L35.0989 110.667L0.0468523 110.667L0.0468536 80L35.0989 80Z" fill="white"/>
</mask>
<g mask="url(#mask8_467_131)">
<mask id="mask9_467_131" style="mask-type:luminance" maskUnits="userSpaceOnUse" x="0" y="80" width="36" height="31">
<path d="M17.5781 110.667L0.0520619 80L35.0989 80L17.5781 110.667Z" fill="white"/>
</mask>
<g mask="url(#mask9_467_131)">
<path d="M35.0989 110.667L-2.27316e-05 110.667L-2.13911e-05 80L35.0989 80L35.0989 110.667Z" fill="#DD481C"/>
</g>
</g>
</g>
</g>
</g>
<mask id="mask10_467_131" style="mask-type:luminance" maskUnits="userSpaceOnUse" x="0" y="26" width="36" height="32">
<path d="M35.0989 26.6667L35.0989 57.3334L-2.27316e-05 57.3334L-2.13911e-05 26.6667L35.0989 26.6667Z" fill="white"/>
</mask>
<g mask="url(#mask10_467_131)">
<mask id="mask11_467_131" style="mask-type:luminance" maskUnits="userSpaceOnUse" x="0" y="26" width="36" height="32">
<path d="M17.5781 57.3334L0.0520619 26.6667L35.0989 26.6667L17.5781 57.3334Z" fill="white"/>
</mask>
<g mask="url(#mask11_467_131)">
<mask id="mask12_467_131" style="mask-type:luminance" maskUnits="userSpaceOnUse" x="-1" y="25" width="37" height="33">
<path d="M35.5156 57.9636L35.5156 25.9636L-0.484375 25.9636L-0.484376 57.9636L35.5156 57.9636Z" fill="white"/>
</mask>
<g mask="url(#mask12_467_131)">
<mask id="mask13_467_131" style="mask-type:luminance" maskUnits="userSpaceOnUse" x="0" y="26" width="36" height="32">
<path d="M35.0989 26.6667L35.0989 57.3334L0.0468523 57.3334L0.0468536 26.6667L35.0989 26.6667Z" fill="white"/>
</mask>
<g mask="url(#mask13_467_131)">
<mask id="mask14_467_131" style="mask-type:luminance" maskUnits="userSpaceOnUse" x="0" y="26" width="36" height="32">
<path d="M17.5781 57.3334L0.0520619 26.6667L35.0989 26.6667L17.5781 57.3334Z" fill="white"/>
</mask>
<g mask="url(#mask14_467_131)">
<path d="M35.0989 57.3334L-2.27316e-05 57.3334L-2.13911e-05 26.6667L35.0989 26.6667L35.0989 57.3334Z" fill="#DD481C"/>
</g>
</g>
</g>
</g>
</g>
<mask id="mask15_467_131" style="mask-type:luminance" maskUnits="userSpaceOnUse" x="0" y="53" width="36" height="31">
<path d="M35.0989 53.3333L35.0989 83.9999L-2.27316e-05 83.9999L-2.13911e-05 53.3333L35.0989 53.3333Z" fill="white"/>
</mask>
<g mask="url(#mask15_467_131)">
<mask id="mask16_467_131" style="mask-type:luminance" maskUnits="userSpaceOnUse" x="0" y="53" width="36" height="31">
<path d="M17.5781 83.9999L0.0520619 53.3333L35.0989 53.3333L17.5781 83.9999Z" fill="white"/>
</mask>
<g mask="url(#mask16_467_131)">
<mask id="mask17_467_131" style="mask-type:luminance" maskUnits="userSpaceOnUse" x="-1" y="52" width="37" height="33">
<path d="M35.5156 84.6301L35.5156 52.6301L-0.484375 52.6301L-0.484376 84.6301L35.5156 84.6301Z" fill="white"/>
</mask>
<g mask="url(#mask17_467_131)">
<mask id="mask18_467_131" style="mask-type:luminance" maskUnits="userSpaceOnUse" x="0" y="53" width="36" height="31">
<path d="M35.0989 53.3333L35.0989 83.9999L0.0468523 83.9999L0.0468536 53.3333L35.0989 53.3333Z" fill="white"/>
</mask>
<g mask="url(#mask18_467_131)">
<mask id="mask19_467_131" style="mask-type:luminance" maskUnits="userSpaceOnUse" x="0" y="53" width="36" height="31">
<path d="M17.5781 83.9999L0.0520619 53.3333L35.0989 53.3333L17.5781 83.9999Z" fill="white"/>
</mask>
<g mask="url(#mask19_467_131)">
<path d="M35.0989 83.9999L-2.27316e-05 83.9999L-2.13911e-05 53.3333L35.0989 53.3333L35.0989 83.9999Z" fill="#DD481C"/>
</g>
</g>
</g>
</g>
</g>
<mask id="mask20_467_131" style="mask-type:luminance" maskUnits="userSpaceOnUse" x="0" y="0" width="36" height="31">
<path d="M35.0989 0L35.0989 30.6667L-2.27316e-05 30.6667L-2.13911e-05 -1.53422e-06L35.0989 0Z" fill="white"/>
</mask>
<g mask="url(#mask20_467_131)">
<mask id="mask21_467_131" style="mask-type:luminance" maskUnits="userSpaceOnUse" x="0" y="0" width="36" height="31">
<path d="M17.5781 30.6667L0.0520619 -1.53195e-06L35.0989 0L17.5781 30.6667Z" fill="white"/>
</mask>
<g mask="url(#mask21_467_131)">
<mask id="mask22_467_131" style="mask-type:luminance" maskUnits="userSpaceOnUse" x="-1" y="-1" width="37" height="33">
<path d="M35.5156 31.2969L35.5156 -0.703125L-0.484375 -0.703127L-0.484376 31.2969L35.5156 31.2969Z" fill="white"/>
</mask>
<g mask="url(#mask22_467_131)">
<mask id="mask23_467_131" style="mask-type:luminance" maskUnits="userSpaceOnUse" x="0" y="0" width="36" height="31">
<path d="M35.0989 0L35.0989 30.6667L0.0468523 30.6667L0.0468536 -1.53218e-06L35.0989 0Z" fill="white"/>
</mask>
<g mask="url(#mask23_467_131)">
<mask id="mask24_467_131" style="mask-type:luminance" maskUnits="userSpaceOnUse" x="0" y="0" width="36" height="31">
<path d="M17.5781 30.6667L0.0520619 -1.53195e-06L35.0989 0L17.5781 30.6667Z" fill="white"/>
</mask>
<g mask="url(#mask24_467_131)">
<path d="M35.0989 30.6667L-2.27316e-05 30.6667L-2.13911e-05 -1.53422e-06L35.0989 0L35.0989 30.6667Z" fill="#DD481C"/>
</g>
</g>
</g>
</g>
</g>
</svg>
