<svg width="107" height="100" viewBox="0 0 107 100" fill="none" xmlns="http://www.w3.org/2000/svg">
<mask id="mask0_412_2965" style="mask-type:luminance" maskUnits="userSpaceOnUse" x="0" y="0" width="107" height="100">
<path d="M79.29 0L2.37718e-05 32.4326L27.336 99.2627L106.626 66.8302L79.29 0Z" fill="white"/>
</mask>
<g mask="url(#mask0_412_2965)">
<mask id="mask1_412_2965" style="mask-type:luminance" maskUnits="userSpaceOnUse" x="-3" y="-3" width="110" height="102">
<path d="M-2.44879 35.247L27.0448 98.4624L106.894 61.2095L77.4004 -2.00589L-2.44879 35.247Z" fill="white"/>
</mask>
<g mask="url(#mask1_412_2965)">
<mask id="mask2_412_2965" style="mask-type:luminance" maskUnits="userSpaceOnUse" x="-3" y="-3" width="110" height="102">
<path d="M-2.44879 35.247L27.0448 98.4624L106.894 61.2095L77.4004 -2.00589L-2.44879 35.247Z" fill="white"/>
</mask>
<g mask="url(#mask2_412_2965)">
<path d="M26.7271 93.923C23.8605 91.6247 22.9967 87.9597 23.0891 84.4355C23.1347 82.7538 23.4903 81.1105 23.919 79.4941C24.3322 77.9409 24.8521 76.4215 25.4638 74.9368C26.7559 71.7948 28.4167 68.7965 30.3123 65.9809C33.6726 60.9754 37.7557 56.4491 42.013 52.1717C41.513 51.1263 40.953 50.1106 40.3416 49.1211C38.8217 46.8194 37.0236 44.709 34.9974 42.8365C32.8548 40.9445 30.4976 39.3107 27.9704 37.9686C25.4937 36.7245 22.8842 35.7621 20.1841 35.1208C17.6454 34.5839 15.0574 34.3306 12.4604 34.396C12.3335 34.4014 12.2066 34.4069 12.0753 34.4141C11.3601 34.4587 10.732 34.4006 10.1206 33.9792C9.57882 33.6017 9.09135 32.9024 9.00892 32.2336C8.92649 31.5649 9.02467 30.8327 9.44825 30.2772C9.84891 29.7414 10.4893 29.2109 11.1894 29.1673C17.3386 28.7955 23.5112 29.9585 29.0758 32.6149C34.6012 35.2512 39.567 39.108 43.2432 44.0295C44.2578 45.3861 45.1726 46.8145 45.9804 48.297C50.653 43.8859 55.594 39.7523 60.7603 35.9295C64.4843 33.177 68.332 30.5753 72.2742 28.1416C71.1288 28.0058 70.0587 27.1574 69.9136 25.9566C69.8294 25.2834 69.9275 24.5511 70.3467 23.9975C70.8037 23.3974 71.3632 23.0859 72.0878 22.8876C76.6536 21.6501 81.3337 21.0581 86.0549 20.9708C86.2763 21.0197 86.4978 21.0686 86.7192 21.1174C87.0583 21.2267 87.3446 21.4091 87.5828 21.6629C88.0083 22.0467 88.3596 22.5899 88.4334 23.1743C88.5148 23.828 88.3839 24.4549 88.0675 24.982C88.0102 25.3721 87.8639 25.747 87.6302 26.0595C84.8806 29.6789 82.1372 33.3009 79.3938 36.9229C78.551 38.032 76.8679 38.4881 75.6918 37.5953C74.58 36.7588 74.1195 35.0774 75.015 33.8951C75.5844 33.1405 76.16 32.3886 76.7294 31.634C75.3889 32.4354 74.0557 33.2545 72.7359 34.0939C68.2372 36.998 63.8742 40.1204 59.686 43.4553C55.7262 46.6038 51.9171 49.9438 48.2771 53.4574C49.1223 55.8646 49.7161 58.3643 50.012 60.9187C50.7305 67.019 49.9883 73.2985 47.811 79.0493C46.727 81.9047 45.2881 84.6626 43.5258 87.1602C41.6291 89.847 39.3952 92.3154 36.5686 94.0294C33.6069 95.8297 29.5634 96.1976 26.7271 93.923ZM41.35 80.5403C42.594 78.0636 43.5352 75.4525 44.1738 72.7586C44.7691 69.9585 45.0363 67.1014 44.9626 64.2443C44.8567 62.0409 44.5441 59.8497 44.0241 57.7072C43.1355 58.6284 42.2674 59.562 41.4074 60.5026C38.5277 63.7155 35.8215 67.1002 33.5481 70.7727C32.9546 71.7334 32.3914 72.7178 31.8612 73.7198C30.4929 76.4229 29.3972 79.2625 28.701 82.2072C28.4832 83.3035 28.3755 84.4166 28.3895 85.5369C28.4398 86.2911 28.5486 87.0368 28.7424 87.7633C28.8948 88.1864 29.0764 88.5925 29.2934 88.9841C29.445 89.1906 29.6126 89.3855 29.7934 89.575C29.9595 89.7033 30.1326 89.8236 30.311 89.9314C30.5123 90.0195 30.7126 90.0925 30.9182 90.153C31.1493 90.1876 31.3793 90.2072 31.6102 90.216C31.9517 90.1796 32.2886 90.1193 32.6209 90.0351C33.1856 89.8247 33.7198 89.5649 34.2359 89.2608C35.2373 88.5775 36.1347 87.7662 36.9623 86.8854C38.6713 84.9519 40.1382 82.8179 41.35 80.5403Z" fill="#E8DCDC"/>
</g>
</g>
</g>
</svg>
