<svg width="33" height="37" viewBox="0 0 33 37" fill="none" xmlns="http://www.w3.org/2000/svg">
<mask id="mask0_412_2958" style="mask-type:luminance" maskUnits="userSpaceOnUse" x="0" y="0" width="33" height="37">
<path d="M0 0H32.6448V37H0V0Z" fill="white"/>
</mask>
<g mask="url(#mask0_412_2958)">
<path d="M32.2818 19.1521C20.9056 21.0567 18.6124 23.6486 16.923 36.4894C16.8362 37.1511 15.9947 37.1511 15.908 36.4894C14.2186 23.6486 11.9222 21.0567 0.545955 19.1521C-0.0385931 19.0525 -0.0385931 18.1019 0.545955 18.0055C11.9222 16.1009 14.2186 13.509 15.908 0.664958C15.9947 0.00653759 16.8362 0.00653759 16.923 0.664958C18.6124 13.509 20.9056 16.0977 32.2818 18.0055C32.8696 18.1019 32.8696 19.0525 32.2818 19.1521Z" fill="white"/>
</g>
</svg>
