<svg width="53" height="60" viewBox="0 0 53 60" fill="none" xmlns="http://www.w3.org/2000/svg">
<mask id="mask0_412_2952" style="mask-type:luminance" maskUnits="userSpaceOnUse" x="0" y="0" width="53" height="60">
<path d="M0 0H52.9375V60H0V0Z" fill="white"/>
</mask>
<g mask="url(#mask0_412_2952)">
<path d="M52.3489 31.0573C33.901 34.1458 30.1823 38.349 27.4427 59.1719C27.302 60.2448 25.9375 60.2448 25.7968 59.1719C23.0573 38.349 19.3333 34.1458 0.885375 31.0573C-0.0625405 30.8958 -0.0625405 29.3542 0.885375 29.1979C19.3333 26.1094 23.0573 21.9062 25.7968 1.07812C25.9375 0.0104167 27.302 0.0104167 27.4427 1.07812C30.1823 21.9062 33.901 26.1042 52.3489 29.1979C53.302 29.3542 53.302 30.8958 52.3489 31.0573Z" fill="#D96222"/>
</g>
</svg>
