<svg width="208" height="78" viewBox="0 0 208 78" fill="none" xmlns="http://www.w3.org/2000/svg">
<g opacity="0.25">
<mask id="mask0_412_2929" style="mask-type:luminance" maskUnits="userSpaceOnUse" x="0" y="0" width="208" height="78">
<path d="M0 0H207.786V77.3333H0V0Z" fill="white"/>
</mask>
<g mask="url(#mask0_412_2929)">
<path d="M46.0308 19.2708C39.8077 19.2708 33.5902 17.078 28.8597 12.6874C25.7117 9.76554 21.5648 8.18742 17.1711 8.18742C12.7717 8.18742 8.6697 9.76554 5.55534 12.651L0 7.53117C4.60139 3.26033 10.701 0.911377 17.1711 0.911377C23.6355 0.911377 29.7744 3.26033 34.3365 7.53117C40.7616 13.4947 51.2158 13.4947 57.6409 7.53117C67.0962 -1.24487 82.5221 -1.24487 92.0167 7.53117C98.4474 13.4947 108.896 13.4947 115.321 7.53117C119.928 3.26033 126.022 0.911377 132.492 0.911377C138.962 0.911377 145.095 3.26033 149.658 7.53117C156.088 13.4947 166.537 13.4947 172.962 7.53117C182.417 -1.24487 197.843 -1.24487 207.343 7.53117L201.782 12.6874C198.674 9.802 194.527 8.22388 190.133 8.22388C185.739 8.22388 181.592 9.802 178.478 12.6874C169.023 21.4635 153.597 21.4635 144.102 12.6874C140.993 9.802 136.847 8.22388 132.453 8.22388C128.053 8.22388 123.907 9.802 120.798 12.6874C111.303 21.4635 95.9166 21.4635 86.422 12.6874C79.9913 6.72388 69.5428 6.72388 63.1177 12.6874C58.4714 17.0364 52.2483 19.2708 46.0308 19.2708ZM178.523 31.8541C184.948 25.8905 195.397 25.8905 201.827 31.8541L207.343 26.6978C197.843 17.9218 182.462 17.9218 172.962 26.6978C166.537 32.6666 156.088 32.6666 149.658 26.6978C140.163 17.9218 124.776 17.9218 115.282 26.6978C112.173 29.5833 108.026 31.1614 103.632 31.1614C99.233 31.1614 95.0861 29.5833 91.9774 26.6978C82.4828 17.9218 67.0962 17.9218 57.6016 26.6978C54.4872 29.5833 50.3404 31.1614 45.9466 31.1614C41.5528 31.1614 37.4901 29.5833 34.3758 26.6978C24.8812 17.9218 9.4553 17.9218 0 26.6978L5.55534 31.8541C11.9861 25.8905 22.4346 25.8905 28.8597 31.8541C33.4218 36.1301 39.5215 38.4374 46.0308 38.4374C52.5401 38.4374 58.6341 36.0885 63.1962 31.8176C69.627 25.8541 80.0755 25.8541 86.5006 31.8176C91.1076 36.0885 97.2017 38.4374 103.672 38.4374C110.142 38.4374 116.275 36.0885 120.837 31.8176C127.268 25.8541 137.716 25.8541 144.141 31.8176C148.748 36.0885 154.843 38.4374 161.313 38.4374C167.822 38.4374 173.916 36.1301 178.523 31.8541ZM63.1962 51.026C69.627 45.0572 80.0755 45.0572 86.5006 51.026C95.9559 59.7968 111.382 59.8385 120.882 51.026C123.991 48.1353 128.138 46.5572 132.531 46.5572C136.931 46.5572 141.078 48.1353 144.186 51.026C153.681 59.7968 169.068 59.7968 178.562 51.026C184.993 45.0572 195.441 45.0572 201.867 51.026L207.422 45.8645C197.927 37.0885 182.546 37.0885 173.046 45.8645C166.621 51.8333 156.172 51.8333 149.742 45.8645C145.14 41.5937 139.046 39.2447 132.576 39.2447C126.106 39.2447 119.967 41.5937 115.405 45.8645C112.296 48.7551 108.15 50.3333 103.756 50.3333C99.3564 50.3333 95.2096 48.7551 92.1008 45.8645C82.6455 37.0885 67.2196 37.0885 57.7251 45.8645C54.6163 48.7551 50.4694 50.3333 46.0701 50.3333C41.6763 50.3333 37.5294 48.7551 34.4207 45.8645C24.8812 37.0885 9.4553 37.0885 0 45.9062L5.55534 51.0624C8.6697 48.177 12.8166 46.5989 17.2103 46.5989C21.6041 46.5989 25.751 48.177 28.8597 51.0624C33.4667 55.3333 39.5608 57.6822 46.0308 57.6822C52.5008 57.6822 58.5948 55.2968 63.1962 51.026ZM63.1962 70.2291C69.627 64.2655 80.0755 64.2655 86.5006 70.2291C95.9559 79.0051 111.382 79.0051 120.882 70.2291C123.991 67.3437 128.138 65.7655 132.531 65.7655C136.931 65.7655 141.078 67.3437 144.186 70.2291C153.681 79.0051 169.068 79.0051 178.562 70.2291C181.671 67.3437 185.818 65.7655 190.217 65.7655C194.611 65.7655 198.758 67.3437 201.867 70.2291L207.422 65.0728C197.972 56.2968 182.546 56.2603 173.046 65.0728C166.621 71.0364 156.172 71.0364 149.742 65.0728C145.14 60.802 139.046 58.453 132.576 58.453C126.106 58.453 119.967 60.802 115.405 65.0728C108.98 71.0364 98.5316 71.0364 92.1008 65.0728C82.6063 56.2968 67.2196 56.2968 57.7251 65.0728C51.2943 71.0364 40.8458 71.0364 34.4207 65.0728C29.8137 60.802 23.7196 58.453 17.2496 58.453C10.7796 58.453 4.60139 60.8385 0 65.0728L5.55534 70.2291C8.6697 67.3437 12.8166 65.7655 17.2103 65.7655C21.6041 65.7655 25.751 67.3437 28.8597 70.2291C33.5902 74.6197 39.8077 76.8124 46.0308 76.8124C52.2483 76.8124 58.4714 74.6197 63.1962 70.2291Z" fill="#EE7C3F"/>
</g>
</g>
</svg>
